<?xml version="1.0" encoding="UTF-8"?>
<!DOCTYPE svg PUBLIC "-//W3C//DTD SVG 1.1//EN" "http://www.w3.org/Graphics/SVG/1.1/DTD/svg11.dtd">
<!-- Creator: CorelDRAW X8 -->
<svg xmlns="http://www.w3.org/2000/svg" xml:space="preserve" width="88px" height="88px" version="1.1" style="shape-rendering:geometricPrecision; text-rendering:geometricPrecision; image-rendering:optimizeQuality; fill-rule:evenodd; clip-rule:evenodd"
viewBox="0 0 71 71"
 xmlns:xlink="http://www.w3.org/1999/xlink">
 <defs>
  <style type="text/css">
   <![CDATA[
    .fil1 {fill:#FEFEFE}
    .fil0 {fill:#2B2A29}
   ]]>
  </style>
 </defs>
 <g id="Layer_x0020_1">
  <metadata id="CorelCorpID_0Corel-Layer"/>
  <rect class="fil0" width="71.3498" height="71.3498"/>
  <path class="fil1" d="M53 60l-8 -22 -5 10 -1 -4 4 -9 -7 -19 -8 18 0 1 5 11 1 3 1 2 2 -2 1 3 -1 3 -2 3 -1 -3 0 0 -1 -3 -2 -3 -4 -10 -9 21 0 0 9 0 4 -11 2 3 -5 11 -1 0c-2,0 -4,0 -6,0 -1,0 -3,0 -4,0 -1,0 -2,0 -3,0l0 0 0 0 11 -29 0 0 0 0 9 -22 2 4 -2 -4 2 -4 1 4 9 22 0 0 11 29 0 0 0 0c-1,0 -2,0 -3,0 -1,0 -3,0 -4,0 -2,0 -4,0 -5,0 0,0 -1,0 -1,0l-1 0 0 0 -4 -11 -2 -3 -1 -4 -2 3 -1 -3 1 -4 2 -3 0 -1 0 0 1 4 2 4 1 4 5 11 0 0 8 0 0 0 1 0 -1 0z"/>
 </g>
</svg>
